<svg width="113" height="24" viewBox="0 0 113 24" fill="none" xmlns="http://www.w3.org/2000/svg">
<g clip-path="url(#clip0_1783_128792)">
<path d="M40.007 13.824L39.3365 15.7216H39.2806C39.1689 15.2937 38.964 14.6426 38.6287 13.8612L35.034 4.83791H31.5137V19.2193H33.8419V10.3449C33.8419 9.78675 33.8419 9.15419 33.8233 8.37279C33.8046 7.98209 33.7674 7.68442 33.7488 7.46116H33.8046C33.9164 8.0193 34.0468 8.42861 34.1399 8.68907L38.4611 19.1821H40.1002L44.3841 8.59605C44.4772 8.35419 44.5704 7.87047 44.6635 7.46116H44.7194C44.6635 8.52163 44.6263 9.47047 44.6076 10.0472V19.1635H47.0849V4.8007H43.695L40.007 13.824ZM49.4317 8.85651H51.8531V19.1635H49.4317V8.85651ZM50.661 4.50303C50.2513 4.50303 49.916 4.65186 49.6366 4.91233C49.3572 5.17279 49.2082 5.50768 49.2082 5.91698C49.2082 6.30768 49.3572 6.64256 49.6366 6.90302C49.916 7.16349 50.2513 7.29372 50.661 7.29372C51.0708 7.29372 51.4247 7.14489 51.6854 6.90302C51.9648 6.64256 52.1138 6.30768 52.1138 5.91698C52.1138 5.52628 51.9648 5.1914 51.6854 4.91233C51.4433 4.65186 51.0894 4.50303 50.661 4.50303ZM60.4396 8.76349C59.9926 8.67047 59.5269 8.61465 59.0799 8.61465C57.981 8.61465 56.9752 8.85651 56.137 9.34023C55.2988 9.82396 54.6283 10.4937 54.1999 11.3309C53.7529 12.1867 53.5294 13.1728 53.5294 14.3077C53.5294 15.2937 53.7529 16.1681 54.1813 16.9681C54.6097 17.7495 55.2057 18.3821 56.0066 18.81C56.7703 19.2379 57.6643 19.4612 58.6701 19.4612C59.8249 19.4612 60.8121 19.2193 61.5944 18.7728L61.613 18.7542V16.5216L61.5199 16.596C61.166 16.8565 60.7562 17.0798 60.3465 17.21C59.9181 17.3588 59.5269 17.4333 59.1917 17.4333C58.2231 17.4333 57.4594 17.1542 56.9193 16.5402C56.3605 15.9449 56.0811 15.1263 56.0811 14.103C56.0811 13.0426 56.3605 12.2053 56.9379 11.5914C57.5153 10.9774 58.279 10.6612 59.2103 10.6612C59.9926 10.6612 60.7935 10.9216 61.5199 11.4426L61.613 11.517V9.15419L61.5944 9.13558C61.2777 9.00535 60.9239 8.85651 60.4396 8.76349ZM68.4301 8.68907C67.834 8.68907 67.2753 8.87512 66.791 9.26582C66.3812 9.6007 66.1018 10.0844 65.8597 10.6612H65.8411V8.85651H63.4197V19.1635H65.8411V13.8984C65.8411 13.0054 66.0273 12.2612 66.4371 11.7216C66.8469 11.1635 67.3684 10.8844 68.0017 10.8844C68.2252 10.8844 68.4487 10.9402 68.7281 10.9774C68.9888 11.0519 69.1751 11.1263 69.3055 11.2193L69.3986 11.2937V8.87512L69.3427 8.85651C69.1751 8.74488 68.8398 8.68907 68.4301 8.68907ZM75.0236 8.63326C73.3287 8.63326 71.969 9.13558 71.0191 10.1216C70.0505 11.1077 69.5849 12.4658 69.5849 14.1774C69.5849 15.7774 70.0691 17.0798 71.0004 18.0286C71.9317 18.9588 73.1983 19.4426 74.7815 19.4426C76.4392 19.4426 77.7616 18.9402 78.7115 17.9356C79.6801 16.9309 80.1457 15.5914 80.1457 13.9356C80.1457 12.2984 79.6987 10.996 78.786 10.0472C77.9106 9.09837 76.6254 8.63326 75.0236 8.63326ZM76.9607 16.5588C76.5137 17.1356 75.8059 17.4147 74.9305 17.4147C74.0551 17.4147 73.3473 17.1356 72.8444 16.5216C72.3415 15.9449 72.0993 15.1077 72.0993 14.0472C72.0993 12.9495 72.3601 12.1123 72.8444 11.517C73.3473 10.9216 74.0364 10.624 74.9118 10.624C75.7686 10.624 76.4392 10.903 76.9234 11.4798C77.4077 12.0565 77.6685 12.8937 77.6685 13.9914C77.6312 15.1077 77.4263 15.9821 76.9607 16.5588ZM85.5472 13.1356C84.7835 12.8193 84.2993 12.5774 84.0758 12.3728C83.8895 12.1867 83.7964 11.9263 83.7964 11.5914C83.7964 11.3123 83.9081 11.0333 84.1875 10.8472C84.4669 10.6612 84.7835 10.5681 85.2492 10.5681C85.659 10.5681 86.0873 10.6426 86.4971 10.7542C86.9069 10.8658 87.2794 11.0333 87.5774 11.2565L87.6705 11.3309V9.06116L87.6147 9.04256C87.3353 8.93093 86.9628 8.8193 86.5157 8.72628C86.0687 8.65186 85.659 8.61465 85.3237 8.61465C84.1689 8.61465 83.219 8.89372 82.4739 9.50768C81.7289 10.0844 81.375 10.8658 81.375 11.7774C81.375 12.2612 81.4495 12.6891 81.6171 13.0426C81.7848 13.396 82.0269 13.7309 82.3622 14.01C82.6974 14.2705 83.1817 14.5681 83.8522 14.8472C84.411 15.0891 84.8394 15.2751 85.1002 15.424C85.3609 15.5728 85.5286 15.7402 85.6589 15.8705C85.7521 16.0193 85.808 16.2054 85.808 16.4472C85.808 17.1356 85.2864 17.4705 84.2248 17.4705C83.815 17.4705 83.3866 17.396 82.8837 17.2286C82.3808 17.0612 81.9152 16.8193 81.524 16.5402L81.4309 16.4658V18.8286L81.4868 18.8472C81.8407 19.0147 82.269 19.1263 82.7906 19.2565C83.3121 19.3495 83.7777 19.424 84.1875 19.424C85.4354 19.424 86.4599 19.1449 87.1863 18.5309C87.9313 17.9356 88.3224 17.1728 88.3224 16.1867C88.3224 15.4984 88.1362 14.8844 87.7264 14.4193C87.1863 13.9728 86.5157 13.5077 85.5472 13.1356ZM94.7111 8.63326C93.0162 8.63326 91.6565 9.13558 90.7065 10.1216C89.7566 11.1077 89.2724 12.4658 89.2724 14.1774C89.2724 15.7774 89.7566 17.0798 90.6879 18.0286C91.6192 18.9588 92.8858 19.4426 94.469 19.4426C96.1267 19.4426 97.4491 18.9402 98.399 17.9356C99.3676 16.9309 99.8332 15.5914 99.8332 13.9356C99.8332 12.2984 99.3862 10.996 98.4735 10.0472C97.5981 9.09837 96.3129 8.63326 94.7111 8.63326ZM96.6296 16.5588C96.1825 17.1356 95.4748 17.4147 94.5993 17.4147C93.7053 17.4147 93.0162 17.1356 92.5133 16.5216C92.0104 15.9449 91.7682 15.1077 91.7682 14.0472C91.7682 12.9495 92.029 12.1123 92.5133 11.517C93.0162 10.9216 93.7053 10.624 94.5807 10.624C95.4189 10.624 96.108 10.903 96.5923 11.4798C97.0766 12.0565 97.3373 12.8937 97.3373 13.9914C97.3373 15.1077 97.0952 15.9821 96.6296 16.5588ZM112.778 10.8472V8.85651H110.338V5.80535L110.264 5.82396L107.954 6.51233L107.898 6.53093V8.85651H104.248V7.55419C104.248 6.95884 104.397 6.49372 104.657 6.19605C104.918 5.89837 105.309 5.74954 105.793 5.74954C106.129 5.74954 106.483 5.82396 106.874 5.9914L106.967 6.04721V3.94489L106.911 3.92628C106.576 3.81465 106.129 3.74023 105.551 3.74023C104.825 3.74023 104.192 3.90768 103.614 4.18675C103.037 4.50302 102.608 4.93093 102.292 5.50768C101.975 6.06582 101.808 6.69837 101.808 7.42396V8.85651H100.113V10.8286H101.808V19.1635H104.248V10.8472H107.898V16.1495C107.898 18.3263 108.923 19.424 110.971 19.424C111.307 19.424 111.661 19.3681 111.996 19.3123C112.35 19.2379 112.611 19.1449 112.76 19.0705L112.778 19.0519V17.0612L112.685 17.1356C112.536 17.2286 112.406 17.303 112.182 17.3588C111.996 17.4147 111.828 17.4333 111.698 17.4333C111.214 17.4333 110.878 17.3216 110.636 17.0426C110.413 16.7821 110.301 16.3542 110.301 15.7216V10.8472H112.778Z" fill="#BFBFBF"/>
<path d="M0.296875 0H11.7145V11.4047H0.296875V0Z" fill="#BFBFBF"/>
<path d="M12.9062 0H24.3239V11.4047H12.9062V0Z" fill="#BFBFBF"/>
<path d="M0.296875 12.5957H11.7145V24.0004H0.296875V12.5957Z" fill="#BFBFBF"/>
<path d="M12.9062 12.5957H24.3239V24.0004H12.9062V12.5957Z" fill="#BFBFBF"/>
</g>
<defs>
<clipPath id="clip0_1783_128792">
<rect width="112.5" height="24" fill="white" transform="translate(0.296875)"/>
</clipPath>
</defs>
</svg>
