<svg width="98" height="24" viewBox="0 0 98 24" fill="none" xmlns="http://www.w3.org/2000/svg">
<g clip-path="url(#clip0_1783_128787)">
<path d="M69.3883 9.33423C67.9692 9.33423 66.9344 9.83793 66.4318 10.7565L66.1657 11.2602V9.57127H63.8301V19.7935H66.284V13.7194C66.284 12.2676 67.0822 11.4379 68.4422 11.4379C69.743 11.4379 70.5117 12.2379 70.5117 13.6602V19.7935H72.9656V13.2157C72.9656 10.7861 71.6352 9.33423 69.3883 9.33423ZM57.5033 9.33423C54.6059 9.33423 52.8321 11.1416 52.8321 14.0453V15.4676C52.8321 18.2824 54.6355 20.0009 57.5624 20.0009C59.5137 20.0009 60.8736 19.2898 61.731 17.8083L60.2232 16.9194C59.5728 17.7787 58.5676 18.2824 57.5624 18.2824C56.0842 18.2824 55.1972 17.3639 55.1972 15.8231V15.4083H62.0267V13.7194C62.0267 11.0824 60.2528 9.33423 57.5033 9.33423ZM59.8093 13.8379H55.1972V13.6009C55.1972 11.912 56.025 10.9935 57.5033 10.9935C58.9519 10.9935 59.8093 11.912 59.8093 13.4527V13.8379ZM97.2973 7.91201V5.95645H88.8122V7.91201H91.7983V17.8379H88.8122V19.7935H97.2973V17.8379H94.3113V7.91201H97.2973ZM32.9942 5.66016C29.2099 5.66016 26.8447 8.03053 26.8447 11.8231V13.8972C26.8447 17.7194 29.2099 20.0602 32.9942 20.0602C36.7784 20.0602 39.1436 17.6898 39.1436 13.8972V11.8231C39.1436 8.03053 36.7784 5.66016 32.9942 5.66016ZM36.6011 14.0453C36.6011 16.5639 35.3002 18.0157 32.9942 18.0157C30.6881 18.0157 29.3873 16.5935 29.3873 14.0453V11.7046C29.3873 9.18608 30.7177 7.73423 32.9942 7.73423C35.2707 7.73423 36.6011 9.18608 36.6011 11.7046V14.0453ZM46.86 9.33423C45.5592 9.33423 44.4653 9.86756 43.874 10.7565L43.6079 11.1713V9.57127H41.2723V23.2898H43.7261V18.3416L43.9922 18.7268C44.554 19.5565 45.6183 20.0305 46.8896 20.0305C49.0182 20.0305 51.1469 18.6379 51.1469 15.5565V13.8083C51.1173 11.5861 49.7869 9.33423 46.86 9.33423ZM48.6634 15.4379C48.6634 17.0972 47.7174 18.1046 46.1504 18.1046C44.7018 18.1046 43.6966 17.0379 43.6966 15.4676V13.9268C43.6966 12.3565 44.7018 11.2602 46.1504 11.2602C47.6878 11.2602 48.6339 12.2676 48.6339 13.9268L48.6634 15.4379ZM79.7359 5.95645L74.7986 19.7935H77.282L78.2281 16.8305H83.9045V16.8602L84.8506 19.7935H87.334L82.3671 5.95645H79.7359ZM78.849 14.875L81.0959 7.88238L83.3132 14.875H78.849Z" fill="#BFBFBF"/>
<path d="M22.0554 9.80741C22.5876 8.17778 22.4102 6.37037 21.5528 4.88889C20.252 2.60741 17.6207 1.45185 15.0486 1.98519C13.9251 0.711111 12.2695 0 10.5548 0C7.9235 0 5.61745 1.68889 4.78964 4.17778C3.10446 4.53333 1.65579 5.57037 0.798415 7.08148C-0.50243 9.36296 -0.206784 12.2074 1.53753 14.163C1.00537 15.8222 1.21232 17.6 2.0697 19.0815C3.37054 21.363 6.00179 22.5481 8.57392 21.9852C9.72694 23.2593 11.353 24 13.0677 24C15.699 24 18.005 22.3111 18.8329 19.8222C20.518 19.4667 21.9667 18.4296 22.8241 16.9185C24.1249 14.637 23.8293 11.763 22.0554 9.80741ZM13.0677 22.4296C12.0034 22.4296 10.9982 22.0741 10.2 21.3926C10.2295 21.363 10.3182 21.3333 10.3478 21.3037L15.1077 18.5481C15.3442 18.4 15.4921 18.163 15.4921 17.8667V11.1407L17.5024 12.2963C17.532 12.2963 17.532 12.3259 17.532 12.3556V17.9259C17.5616 20.4148 15.5512 22.4296 13.0677 22.4296ZM3.42967 18.3111C2.89751 17.3926 2.72012 16.3259 2.89751 15.2889C2.92707 15.3185 2.9862 15.3481 3.04533 15.3778L7.80524 18.1333C8.04176 18.2815 8.3374 18.2815 8.57392 18.1333L14.3982 14.7556V17.0963C14.3982 17.1259 14.3982 17.1556 14.3686 17.1556L9.54955 19.9407C7.4209 21.1852 4.67139 20.4444 3.42967 18.3111ZM2.18795 7.88148C2.72012 6.96296 3.54793 6.28148 4.52356 5.8963V11.5852C4.52356 11.8519 4.67139 12.1185 4.9079 12.2667L10.7321 15.6444L8.72174 16.8C8.69218 16.8 8.66261 16.8296 8.66261 16.8L3.84357 14.0148C1.65579 12.7704 0.946238 10.0148 2.18795 7.88148ZM18.7442 11.7333L12.9199 8.35556L14.9303 7.2C14.9599 7.2 14.9895 7.17037 14.9895 7.2L19.8085 9.98519C21.9667 11.2296 22.6763 13.9852 21.4345 16.1185C20.9024 17.037 20.0746 17.7185 19.0989 18.0741V12.4148C19.1285 12.1481 18.9807 11.8815 18.7442 11.7333ZM20.725 8.71111C20.6954 8.68148 20.6363 8.65185 20.5772 8.62222L15.8173 5.86667C15.5807 5.71852 15.2851 5.71852 15.0486 5.86667L9.22434 9.24444V6.9037C9.22434 6.87407 9.22434 6.84444 9.25391 6.84444L14.0729 4.05926C16.2312 2.81481 18.9511 3.55556 20.1928 5.71852C20.725 6.60741 20.9024 7.67407 20.725 8.71111ZM8.13045 12.8593L6.12005 11.7037C6.09049 11.7037 6.09049 11.6741 6.09049 11.6444V6.07407C6.09049 3.58519 8.10089 1.57037 10.5843 1.57037C11.6486 1.57037 12.6538 1.92593 13.4521 2.60741C13.4225 2.63704 13.3634 2.66667 13.3043 2.6963L8.54436 5.45185C8.30784 5.6 8.16002 5.83704 8.16002 6.13333V12.8593H8.13045ZM9.22434 10.4889L11.826 8.97778L14.4277 10.4889V13.4815L11.826 14.9926L9.22434 13.4815V10.4889Z" fill="#BFBFBF"/>
</g>
<defs>
<clipPath id="clip0_1783_128787">
<rect width="97.2973" height="24" fill="white"/>
</clipPath>
</defs>
</svg>
